HIERARCHY
ROOT root
{
	OFFSET 0.000000 0.000000 0.000000
	CHANNELS 6 Xposition Yposition Zposition Zrotation Yrotation Xrotation
	JOINT lhip
	{
		OFFSET 0.058581 -0.082280 -0.017664
		CHANNELS 3 Zrotation Yrotation Xrotation
		JOINT lknee
		{
			OFFSET 0.043451 -0.386469 0.008037
			CHANNELS 3 Zrotation Yrotation Xrotation
			JOINT lankle
			{
				OFFSET -0.014790 -0.426874 -0.037428
				CHANNELS 3 Zrotation Yrotation Xrotation
				JOINT ltoe
				{
					OFFSET 0.041054 -0.060286 0.122042
					CHANNELS 3 Zrotation Yrotation Xrotation
					End Site
					{
						OFFSET 0.000000 0.000000 0.000000
					}
				}
			}
		}
	}
	JOINT rhip
	{
		OFFSET -0.060310 -0.090513 -0.013543
		CHANNELS 3 Zrotation Yrotation Xrotation
		JOINT rknee
		{
			OFFSET -0.043257 -0.383688 -0.004843
			CHANNELS 3 Zrotation Yrotation Xrotation
			JOINT rankle
			{
				OFFSET 0.019056 -0.420046 -0.034562
				CHANNELS 3 Zrotation Yrotation Xrotation
				JOINT rtoe
				{
					OFFSET -0.034840 -0.062106 0.130323
					CHANNELS 3 Zrotation Yrotation Xrotation
					End Site
					{
						OFFSET 0.000000 0.000000 0.000000
					}
				}
			}
		}
	}
	JOINT lowerback
	{
		OFFSET 0.004439 0.124404 -0.038385
		CHANNELS 3 Zrotation Yrotation Xrotation
		JOINT upperback
		{
			OFFSET 0.004488 0.137956 0.026820
			CHANNELS 3 Zrotation Yrotation Xrotation
			JOINT chest
			{
				OFFSET -0.002265 0.056032 0.002855
				CHANNELS 3 Zrotation Yrotation Xrotation
				JOINT lowerneck
				{
					OFFSET -0.013390 0.211636 -0.033468
					CHANNELS 3 Zrotation Yrotation Xrotation
					JOINT upperneck
					{
						OFFSET 0.010113 0.088937 0.050410
						CHANNELS 3 Zrotation Yrotation Xrotation
						End Site
						{
							OFFSET 0.000000 0.000000 0.000000
						}
					}
				}
				JOINT lclavicle
				{
					OFFSET 0.071702 0.114000 -0.018898
					CHANNELS 3 Zrotation Yrotation Xrotation
					JOINT lshoulder
					{
						OFFSET 0.122921 0.045205 -0.019046
						CHANNELS 3 Zrotation Yrotation Xrotation
						JOINT lelbow
						{
							OFFSET 0.255332 -0.015649 -0.022946
							CHANNELS 3 Zrotation Yrotation Xrotation
							JOINT lwrist
							{
								OFFSET 0.265709 0.012698 -0.007375
								CHANNELS 3 Zrotation Yrotation Xrotation
								End Site
								{
									OFFSET 0.000000 0.000000 0.000000
								}
							}
						}
					}
				}
				JOINT rclavicle
				{
					OFFSET -0.082954 0.112472 -0.023707
					CHANNELS 3 Zrotation Yrotation Xrotation
					JOINT rshoulder
					{
						OFFSET -0.113228 0.046853 -0.008472
						CHANNELS 3 Zrotation Yrotation Xrotation
						JOINT relbow
						{
							OFFSET -0.260127 -0.014369 -0.031269
							CHANNELS 3 Zrotation Yrotation Xrotation
							JOINT rwrist
							{
								OFFSET -0.269108 0.006794 -0.006027
								CHANNELS 3 Zrotation Yrotation Xrotation
								End Site
								{
									OFFSET 0.000000 0.000000 0.000000
								}
							}
						}
					}
				}
			}
		}
	}
}
MOTION
Frames: 17
Frame Time: 0.033333
-0.118597 2.447522 0.986741 -152.729061 1.523256 93.168562 -1.648006 -1.448402 -16.030203 -9.636900 -4.662904 26.278026 8.402582 14.053055 -21.934154 0.000000 -0.000000 0.000000 -7.060683 -5.348294 -24.546518 -1.785673 -11.750832 40.928399 3.471293 -10.660411 -11.223597 0.000000 -0.000000 0.000000 -1.871451 4.422159 12.106284 -0.270524 -0.782241 17.530792 -0.849478 1.595896 -8.938236 -15.661890 21.630869 -1.310908 -3.838365 26.511041 2.733554 -31.312545 -6.783683 -0.218905 -44.203917 -5.301285 18.171257 14.145375 -44.094098 -15.280992 0.627269 -12.084223 -7.038091 34.119398 10.331633 6.421484 43.300810 6.228770 11.267164 -15.286341 32.626737 -29.610584 -0.300971 12.248671 -18.147019 
-0.123055 2.460001 0.986345 -148.469905 0.983354 93.242540 -2.139901 -2.366385 -15.685613 -9.998760 -6.489418 27.281340 8.134869 12.974889 -22.472820 0.000000 -0.000000 0.000000 -7.142360 -4.764169 -26.941464 -0.769654 -9.693846 37.898199 3.586943 -8.996710 -11.298640 0.000000 -0.000000 0.000000 -1.698578 4.378641 12.502642 -0.351235 -0.701248 17.464567 -0.885239 1.461061 -9.014144 -16.300516 22.344015 -2.004028 -3.464099 27.622774 2.377092 -31.496085 -6.771689 0.080298 -44.080288 -5.468992 18.103506 14.737908 -44.690464 -15.548104 0.513908 -12.486971 -7.258132 34.087027 10.123029 6.432266 42.867971 6.512135 11.058784 -15.409272 33.462161 -30.260165 -0.418931 12.488982 -18.214168 
-0.126837 2.472229 0.986097 -143.775131 0.511046 93.228227 -2.424306 -3.351881 -15.372475 -10.391134 -8.192018 28.279936 7.908557 11.899222 -22.746418 0.000000 -0.000000 0.000000 -7.565783 -3.934906 -28.828920 0.229592 -7.295016 35.568986 4.113658 -7.283411 -11.039056 0.000000 -0.000000 0.000000 -1.335972 4.112111 13.038971 -0.468283 -0.555872 17.077002 -1.004833 1.654160 -8.990475 -16.852128 22.521327 -2.040800 -3.216014 28.302068 1.446441 -31.832354 -6.828733 -0.602171 -43.926943 -5.309430 19.008005 14.721188 -44.376028 -15.356036 1.181016 -12.754952 -7.800478 34.107100 9.892858 6.175778 42.132890 6.242116 10.987332 -15.223845 34.111553 -30.570777 -0.477054 12.588192 -18.254394 
-0.130296 2.484904 0.985953 -139.176500 0.217605 93.074318 -2.420422 -4.125535 -14.685008 -10.908794 -10.179401 28.778310 7.797875 11.057269 -22.750202 0.000000 -0.000000 0.000000 -8.077323 -2.628124 -30.204991 1.181302 -4.271066 34.033243 4.801205 -5.409947 -11.001527 0.000000 -0.000000 0.000000 -0.744143 4.115946 13.482144 -0.517012 -0.394737 16.970114 -1.101445 1.736989 -9.020794 -17.601897 22.838126 -2.173932 -2.896267 28.416655 0.587380 -32.051675 -7.009851 -0.545829 -44.137533 -5.137894 18.934185 15.055937 -43.960617 -16.184584 1.100997 -12.881598 -7.663540 33.970775 9.821020 6.213460 41.300005 6.162561 10.420204 -14.740136 34.456484 -30.624546 0.127995 12.673685 -17.633902 
-0.132750 2.499857 0.986024 -133.291077 -0.142301 93.059309 -2.182637 -4.859838 -14.792221 -11.689175 -12.267022 30.404937 7.523669 9.398639 -23.007787 0.000000 -0.000000 0.000000 -8.859160 -1.837378 -30.765755 1.879390 -1.528923 32.938310 5.430901 -3.484686 -11.189929 0.000000 -0.000000 0.000000 -0.579488 3.624343 13.464024 -0.264616 -0.636923 17.129887 -0.937494 1.729710 -9.438223 -17.524166 22.112728 -1.691680 -2.473173 28.655919 -0.092141 -32.754545 -7.023615 0.049168 -43.729780 -4.676120 18.647372 15.473335 -43.390467 -16.381048 0.931677 -13.248328 -8.154818 34.075029 9.535534 6.773534 40.512044 6.239302 9.894618 -14.454722 34.325723 -30.310326 0.586901 12.744356 -17.514499 
-0.135393 2.515158 0.986708 -127.609758 -0.404688 92.960054 -1.545545 -5.435340 -14.449032 -12.649592 -14.327601 31.181909 7.317269 7.823753 -23.001413 0.000000 -0.000000 0.000000 -9.681240 -0.770044 -30.798034 3.067949 2.156458 32.264289 5.780063 -0.979710 -11.155207 0.000000 -0.000000 0.000000 -0.249358 3.170367 13.621042 -0.092873 -0.800545 16.749759 -1.025112 1.769507 -8.977092 -16.999022 21.134609 -2.105540 -2.617647 27.997008 -0.284631 -33.081316 -6.599991 -0.482671 -43.391595 -4.355820 19.068655 14.983674 -42.794239 -16.817120 2.293928 -13.207753 -9.592944 34.545068 9.358321 6.209012 39.543737 5.987228 10.432539 -14.600005 33.877439 -30.319226 0.675866 12.591351 -17.639738 
-0.137242 2.531195 0.988363 -121.827393 -0.663199 93.100248 -0.578493 -6.107655 -14.571505 -13.809255 -16.620756 32.123011 7.115492 6.006943 -22.658371 0.000000 -0.000000 0.000000 -10.430350 0.666829 -30.381527 4.449641 6.479311 31.758146 6.019974 1.326595 -11.502240 0.000000 -0.000000 0.000000 0.172699 3.008647 13.507481 0.164200 -1.101083 16.607561 -1.048144 1.794096 -9.134059 -16.945404 19.767230 -1.942121 -2.483315 27.174972 -0.480432 -33.556489 -6.352928 -0.440277 -42.838252 -3.693031 19.292702 14.539422 -42.189677 -17.054649 3.104676 -13.013059 -10.743665 34.772704 8.979659 5.914942 38.873192 5.843673 10.476999 -14.497724 32.983586 -30.061935 0.858227 12.514489 -17.658744 
-0.138530 2.547052 0.990638 -115.670391 -0.970902 93.387129 0.450674 -7.095943 -15.053829 -14.742582 -19.014325 32.773540 6.609908 3.952628 -21.963997 0.000000 -0.000000 0.000000 -11.144432 1.941255 -29.622895 5.477373 10.217050 31.832485 6.513247 3.286966 -12.028976 0.000000 -0.000000 0.000000 0.922562 2.856913 13.098802 0.350936 -1.430433 16.732779 -1.141822 1.585891 -9.270951 -17.139372 18.757435 -2.154863 -2.254597 26.031389 -0.256212 -34.245833 -6.131291 -0.357669 -41.581295 -3.023976 19.022828 13.736591 -41.211199 -16.163239 1.887610 -13.273370 -9.505736 35.059850 8.667820 5.881797 38.069006 5.913243 10.003579 -14.454869 31.869870 -30.377378 1.219317 12.597272 -16.914524 
-0.140433 2.564491 0.993168 -110.095453 -1.561245 93.507456 1.085726 -7.498499 -14.865844 -15.291875 -21.944696 32.507542 6.118293 2.072190 -21.358672 0.000000 -0.000000 0.000000 -11.689303 2.933628 -28.423159 6.194422 12.708128 32.389899 7.086600 4.765897 -12.245189 0.000000 -0.000000 0.000000 1.283441 2.815821 12.550508 0.429742 -1.415320 16.984504 -1.222656 1.698564 -9.232977 -17.162804 17.568959 -2.041696 -2.348578 24.306149 -0.204952 -34.389893 -5.996898 -0.107067 -40.942889 -2.819670 18.457627 13.097390 -39.690650 -15.524092 1.189884 -13.705124 -8.157497 35.126999 8.639085 5.854521 37.599221 5.553175 9.565267 -14.408162 31.002784 -30.471962 1.528305 12.629084 -16.894576 
-0.142671 2.582710 0.995336 -104.995837 -2.413840 93.586478 1.946287 -8.141937 -14.805258 -16.197987 -23.704613 31.911844 5.462078 0.415255 -20.489202 0.000000 -0.000000 0.000000 -12.082824 3.595274 -27.059424 6.539122 13.970312 33.220674 7.266195 5.436086 -12.327006 0.000000 -0.000000 0.000000 1.463161 2.711088 12.318603 0.256029 -1.245337 16.838848 -1.449833 2.042844 -9.352442 -17.432282 16.576338 -1.792998 -2.375717 22.688225 -0.418232 -34.685446 -5.370850 -0.469872 -39.730135 -1.969542 18.853450 12.749394 -38.554068 -15.090908 1.449880 -14.024392 -8.503446 35.343348 8.572482 6.078234 37.203721 5.428813 9.445585 -14.190809 29.913165 -30.863525 1.197762 12.755714 -17.448131 
-0.143102 2.601864 0.996689 -99.647887 -3.467808 93.773611 2.707668 -8.767056 -15.244790 -16.872551 -25.613336 31.287795 4.596767 -1.396501 -19.698590 0.000000 -0.000000 0.000000 -12.182811 3.420580 -25.655705 6.599047 14.553597 34.240189 6.281168 5.394136 -12.801911 0.000000 -0.000000 0.000000 1.537762 3.190280 11.891427 0.179104 -1.198099 17.064295 -1.518639 1.970465 -9.502199 -17.389105 15.137153 -1.997773 -2.595611 20.951025 -0.053631 -34.917199 -5.016114 -0.411503 -38.300411 -1.791652 18.539341 12.029679 -37.306308 -14.990396 0.955217 -14.087907 -8.110752 35.339537 8.540429 5.999035 36.890052 5.359697 9.288325 -14.034061 28.929124 -31.195729 1.253226 12.855907 -17.401582 
-0.144242 2.621276 0.997126 -94.690893 -4.747978 93.823871 3.268099 -9.164129 -15.630053 -17.377085 -27.518557 30.427814 3.351811 -3.483965 -18.806293 0.000000 -0.000000 0.000000 -12.469150 2.975767 -23.930011 6.304621 13.827207 33.864498 5.092909 4.215913 -13.530041 0.000000 -0.000000 0.000000 1.373736 3.675788 11.480203 -0.203634 -1.043266 17.220865 -1.614902 1.935377 -9.417619 -17.579703 13.952393 -2.265797 -2.226153 19.365059 0.095983 -34.896088 -4.894963 -0.250805 -37.245988 -1.423386 17.862995 12.180113 -36.077269 -15.732486 1.518830 -13.975818 -7.219333 35.611561 9.001299 5.885317 36.320097 5.142824 9.074505 -13.647744 27.993774 -31.229404 1.413989 13.070833 -17.552943 
-0.143955 2.639951 0.997162 -90.116618 -6.174262 93.840999 3.753954 -9.121813 -16.632356 -18.091288 -28.511969 29.850950 1.691216 -5.542172 -17.401610 0.000000 -0.000000 0.000000 -12.968124 1.329903 -22.665025 5.844527 11.341340 33.343133 4.652817 2.842311 -14.979152 0.000000 -0.000000 0.000000 1.411439 4.013431 11.742507 -0.999844 -0.890708 16.498686 -1.744402 1.847918 -9.005158 -17.373274 12.953992 -2.571945 -2.339671 18.215270 0.388961 -35.115374 -4.601967 -0.203666 -35.976175 -0.787543 16.920851 12.729968 -35.482580 -17.407413 1.579161 -13.914413 -6.052946 35.635243 9.809445 6.139355 35.877475 5.204163 8.699660 -13.346207 27.133155 -31.529045 2.187636 13.246534 -16.817804 
-0.143319 2.659975 0.998326 -85.670925 -6.958483 93.648027 4.372787 -8.389413 -17.615601 -17.970708 -28.768689 29.098588 -1.322351 -6.380737 -15.502763 0.000000 -0.000000 0.000000 -12.406033 -0.467930 -21.430130 5.081877 8.634782 32.631752 3.699475 0.799076 -15.810058 0.000000 -0.000000 0.000000 1.803703 4.457615 12.284686 -1.472574 -0.945959 16.045463 -1.805354 1.906473 -8.914949 -17.551471 11.839704 -2.676147 -2.315763 17.459442 0.529864 -36.234526 -4.313252 0.339773 -33.898951 -0.269670 15.869468 12.955340 -35.665840 -18.601540 1.661399 -13.744537 -5.834074 35.664214 10.533480 6.579185 35.099159 5.477067 7.993030 -12.825139 26.478992 -31.131599 2.378494 13.270795 -16.661753 
-0.141928 2.677829 1.000185 -81.475257 -7.639355 93.321235 4.522999 -7.470779 -18.250068 -16.803872 -27.047594 27.535372 -3.619726 -5.529573 -14.353331 0.000000 -0.000000 0.000000 -12.145498 -1.840569 -20.668959 4.820599 6.494656 32.551948 3.040713 -0.616898 -15.936772 0.000000 -0.000000 0.000000 2.292449 4.832891 12.263744 -1.828167 -0.825657 16.673345 -2.063030 2.064192 -8.957330 -17.160692 10.763997 -2.542411 -2.669329 16.619716 0.618962 -36.619147 -4.247773 0.622136 -34.091056 -0.551953 14.875588 14.151455 -34.486278 -20.416251 1.686775 -13.280314 -4.909811 35.442778 11.066507 6.690341 34.441526 6.113923 7.247530 -13.243794 25.246778 -31.333698 1.954322 13.361541 -15.975517 
-0.141255 2.693770 1.002108 -77.442780 -8.090003 92.945002 4.065064 -5.928379 -18.110786 -15.127618 -23.728277 25.081379 -4.336489 -2.616148 -13.808753 0.000000 -0.000000 0.000000 -12.085725 -3.002735 -19.839334 5.286441 4.586767 32.275371 2.873260 -0.848275 -15.326789 0.000000 -0.000000 0.000000 2.791466 4.917916 12.100444 -2.032259 -0.548704 17.051158 -2.327681 2.343460 -8.951456 -16.573740 9.838257 -2.115790 -2.864070 16.102146 0.934201 -36.930628 -4.095154 0.592695 -34.708571 -0.470718 14.781138 14.896483 -33.553119 -21.258705 2.084532 -13.027043 -5.115100 34.850561 11.161221 6.325408 33.911955 6.531708 6.856766 -13.009977 24.275703 -31.343236 1.269537 13.203942 -15.272287 
-0.140527 2.708579 1.003245 -73.216137 -8.261707 92.975810 3.748233 -4.320423 -17.924804 -12.987872 -19.159614 22.003496 -4.934015 -0.343296 -14.512728 0.000000 -0.000000 0.000000 -11.657131 -3.961552 -19.173987 4.967194 2.089633 31.453212 2.799738 -1.844669 -15.621559 0.000000 -0.000000 0.000000 3.149389 4.793394 11.355722 -2.076109 -0.591746 16.656345 -2.267588 2.487830 -8.366824 -15.994680 9.504343 -1.777972 -3.240831 16.027725 1.565268 -36.700603 -3.671728 0.231872 -36.567630 0.181961 14.650252 15.428291 -32.648621 -22.379525 1.735927 -12.017579 -4.228567 34.279463 11.151885 5.928096 33.495914 7.016873 6.611864 -13.058937 23.245283 -31.550278 1.506896 13.140509 -14.352932 
